<svg xmlns="http://www.w3.org/2000/svg" viewBox="0 0 320 80" width="320" height="80">
  <defs>
    
  </defs>
  
  <g transform="translate(40, 40)">
    <circle r="28" fill="#f4f4f7"></circle>
    
    <path d="M0,0 L28,0 A28,28 0 0,1 14,24.25 Z" fill="#c8bfff"></path>
    <path d="M0,0 L14,24.25 A28,28 0 0,1 -14,24.25 Z" fill="#bfdcff"></path>
    <path d="M0,0 L-14,24.25 A28,28 0 0,1 -28,0 Z" fill="#bfeed6"></path>
    <path d="M0,0 L-28,0 A28,28 0 0,1 -14,-24.25 Z" fill="#ffd4b8"></path>
    <path d="M0,0 L-14,-24.25 A28,28 0 0,1 14,-24.25 Z" fill="#ffc1d0"></path>
    <path d="M0,0 L14,-24.25 A28,28 0 0,1 28,0 Z" fill="#d8b8ff"></path>
    
    <g stroke="#fff" stroke-width="1.75" stroke-linecap="round">
      <line x1="0" y1="0" x2="28" y2="0"></line>
      <line x1="0" y1="0" x2="14" y2="24.25"></line>
      <line x1="0" y1="0" x2="-14" y2="24.25"></line>
      <line x1="0" y1="0" x2="-28" y2="0"></line>
      <line x1="0" y1="0" x2="-14" y2="-24.25"></line>
      <line x1="0" y1="0" x2="14" y2="-24.25"></line>
    </g>
    
    <circle r="8" fill="rgba(255,255,255,0.85)"></circle>
    <circle r="8" fill="none" stroke="rgba(0,0,0,0.06)" stroke-width="0.75"></circle>
    
    <path d="M0,-30 L-4,-24 L4,-24 Z" fill="#1c1c1e"></path>
  </g>
  
  <text x="82" y="52" class="wm" fill="#1c1c1e">YOLO<tspan fill="#6c5ce7">cide</tspan></text>
</svg>