<svg width="149" height="43" viewBox="0 0 149 43" fill="none" xmlns="http://www.w3.org/2000/svg">
<path d="M148.172 38.0409C148.172 40.3325 146.275 42.1886 143.929 42.1886H5.0763C2.73126 42.1886 0.827789 40.3325 0.827789 38.0409V4.96439C0.827789 2.67395 2.73126 0.811279 5.0763 0.811279H143.928C146.275 0.811279 148.171 2.67395 148.171 4.96439L148.172 38.0409Z" fill="black"/>
<path d="M143.481 0.861347C146.037 0.861347 148.116 2.88638 148.116 5.375V37.625C148.116 40.1136 146.037 42.1387 143.481 42.1387H5.51852C2.96344 42.1387 0.884342 40.1136 0.884342 37.625V5.375C0.884342 2.88638 2.96344 0.861347 5.51852 0.861347H143.481ZM143.481 3.8147e-06H5.51852C2.48471 3.8147e-06 0 2.4201 0 5.375V37.625C0 40.5799 2.48471 43 5.51852 43H143.481C146.515 43 149 40.5799 149 37.625V5.375C149 2.4201 146.515 3.8147e-06 143.481 3.8147e-06Z" fill="#A6A6A6"/>
<path d="M33.2524 21.2679C33.2204 17.8031 36.1651 16.1175 36.2997 16.0391C34.632 13.6708 32.0471 13.3473 31.1388 13.3215C28.9678 13.0989 26.8619 14.5867 25.756 14.5867C24.628 14.5867 22.925 13.343 21.0896 13.3795C18.7276 13.415 16.518 14.7469 15.3062 16.8152C12.8052 21.0324 14.6704 27.2298 17.0666 30.6386C18.2652 32.3081 19.6658 34.1722 21.499 34.1066C23.2926 34.0346 23.9625 32.9929 26.1269 32.9929C28.2714 32.9929 28.9005 34.1066 30.7702 34.0647C32.695 34.0346 33.9069 32.3877 35.0636 30.7031C36.4487 28.7896 37.005 26.9052 37.0271 26.8084C36.9818 26.7934 33.2888 25.4206 33.2524 21.2679Z" fill="white"/>
<path d="M29.7205 11.079C30.6852 9.90405 31.3452 8.30552 31.162 6.68335C29.7658 6.74355 28.0197 7.62397 27.0142 8.77315C26.1247 9.7858 25.33 11.4456 25.5353 13.0065C27.1036 13.1204 28.714 12.2357 29.7205 11.079Z" fill="white"/>
<path d="M54.1367 10.7597C54.1367 12.025 53.7471 12.9774 52.969 13.6171C52.2483 14.2072 51.224 14.5029 49.8974 14.5029C49.2396 14.5029 48.6767 14.4749 48.2054 14.419V7.5057C48.8201 7.40895 49.4824 7.3595 50.1976 7.3595C51.4613 7.3595 52.4138 7.62717 53.0562 8.16252C53.7758 8.76775 54.1367 9.63312 54.1367 10.7597ZM52.9171 10.7909C52.9171 9.97067 52.6942 9.3418 52.2483 8.9032C51.8024 8.46567 51.1512 8.24637 50.2936 8.24637C49.9294 8.24637 49.6192 8.27002 49.3621 8.31947V13.5751C49.5044 13.5966 49.7649 13.6063 50.1435 13.6063C51.0287 13.6063 51.7119 13.3666 52.1931 12.8871C52.6743 12.4077 52.9171 11.7089 52.9171 10.7909Z" fill="white"/>
<path d="M60.6033 11.8648C60.6033 12.6442 60.3748 13.2827 59.9179 13.7837C59.4389 14.2986 58.8042 14.5555 58.0118 14.5555C57.248 14.5555 56.6399 14.3094 56.1863 13.8149C55.7337 13.3214 55.5075 12.699 55.5075 11.9487C55.5075 11.1639 55.7404 10.52 56.2083 10.0201C56.6763 9.52025 57.3054 9.26978 58.0979 9.26978C58.8616 9.26978 59.4753 9.51595 59.94 10.0094C60.3814 10.4888 60.6033 11.108 60.6033 11.8648ZM59.4036 11.9014C59.4036 11.4337 59.2998 11.0328 59.0934 10.6984C58.8506 10.2942 58.5051 10.0921 58.0559 10.0921C57.5913 10.0921 57.2381 10.2942 56.9953 10.6984C56.7878 11.0328 56.6851 11.4402 56.6851 11.9218C56.6851 12.3894 56.7889 12.7904 56.9953 13.1247C57.2458 13.5289 57.5946 13.731 58.0449 13.731C58.4864 13.731 58.8329 13.5257 59.0824 13.114C59.2965 12.7732 59.4036 12.369 59.4036 11.9014Z" fill="white"/>
<path d="M69.274 9.37292L67.646 14.4405H66.5865L65.9121 12.2399C65.741 11.6906 65.602 11.1445 65.4938 10.6027H65.4728C65.3724 11.1596 65.2333 11.7046 65.0545 12.2399L64.3382 14.4405H63.2665L61.7357 9.37292H62.9244L63.5126 11.782C63.655 12.3518 63.772 12.8946 63.8658 13.4085H63.8868C63.9729 12.9849 64.1153 12.4453 64.3161 11.7928L65.0545 9.374H65.9971L66.7046 11.7411C66.8756 12.3184 67.0147 12.8742 67.1218 13.4096H67.1538C67.2321 12.8882 67.3502 12.3324 67.507 11.7411L68.1383 9.374H69.274V9.37292Z" fill="white"/>
<path d="M75.2704 14.4405H74.1137V11.538C74.1137 10.6436 73.7649 10.1964 73.0652 10.1964C72.7219 10.1964 72.4449 10.3189 72.2297 10.5651C72.0167 10.8113 71.9085 11.1015 71.9085 11.4337V14.4394H70.7518V10.8209C70.7518 10.3759 70.7375 9.8932 70.7099 9.37075H71.7264L71.7805 10.163H71.8125C71.9471 9.91686 72.148 9.71368 72.4118 9.55135C72.7253 9.36215 73.0762 9.26648 73.4603 9.26648C73.9459 9.26648 74.3499 9.41913 74.6711 9.7255C75.0706 10.1007 75.2704 10.6608 75.2704 11.4047V14.4405Z" fill="white"/>
<path d="M78.4601 14.4405H77.3045V7.04773H78.4601V14.4405Z" fill="white"/>
<path d="M85.27 11.8648C85.27 12.6442 85.0415 13.2827 84.5846 13.7837C84.1056 14.2986 83.4698 14.5555 82.6785 14.5555C81.9136 14.5555 81.3055 14.3094 80.8529 13.8149C80.4004 13.3214 80.1742 12.699 80.1742 11.9487C80.1742 11.1639 80.407 10.52 80.875 10.0201C81.343 9.52025 81.9721 9.26978 82.7635 9.26978C83.5283 9.26978 84.1409 9.51595 84.6066 10.0094C85.0481 10.4888 85.27 11.108 85.27 11.8648ZM84.0691 11.9014C84.0691 11.4337 83.9654 11.0328 83.759 10.6984C83.5173 10.2942 83.1707 10.0921 82.7226 10.0921C82.2569 10.0921 81.9037 10.2942 81.662 10.6984C81.4545 11.0328 81.3518 11.4402 81.3518 11.9218C81.3518 12.3894 81.4556 12.7904 81.662 13.1247C81.9125 13.5289 82.2613 13.731 82.7116 13.731C83.1531 13.731 83.4985 13.5257 83.748 13.114C83.9632 12.7732 84.0691 12.369 84.0691 11.9014Z" fill="white"/>
<path d="M90.8679 14.4405H89.8294L89.7433 13.8568H89.7113C89.3559 14.3223 88.8493 14.5555 88.1915 14.5555C87.7003 14.5555 87.303 14.4018 87.0039 14.0965C86.7324 13.8192 86.5966 13.4741 86.5966 13.0645C86.5966 12.4453 86.8615 11.9734 87.3946 11.6466C87.9266 11.3198 88.6749 11.1596 89.6384 11.1671V11.0726C89.6384 10.405 89.2786 10.0717 88.5579 10.0717C88.0447 10.0717 87.5922 10.1975 87.2015 10.4469L86.9664 9.7073C87.4498 9.41597 88.0469 9.26978 88.751 9.26978C90.1108 9.26978 90.7929 9.96853 90.7929 11.366V13.2322C90.7929 13.7385 90.8183 14.1417 90.8679 14.4405ZM89.6671 12.699V11.9175C88.3912 11.896 87.7533 12.2368 87.7533 12.9387C87.7533 13.2032 87.8261 13.401 87.9751 13.5332C88.1241 13.6654 88.314 13.731 88.5402 13.731C88.7941 13.731 89.0314 13.6525 89.2477 13.4967C89.4651 13.3397 89.5987 13.1408 89.6484 12.8968C89.6605 12.842 89.6671 12.7753 89.6671 12.699Z" fill="white"/>
<path d="M97.4405 14.4405H96.4141L96.36 13.6267H96.328C96.0002 14.2459 95.4417 14.5555 94.657 14.5555C94.0301 14.5555 93.508 14.3158 93.0941 13.8364C92.6802 13.3569 92.4738 12.7345 92.4738 11.9702C92.4738 11.1499 92.6979 10.4856 93.1482 9.97818C93.5842 9.50518 94.1184 9.26868 94.7541 9.26868C95.4527 9.26868 95.9417 9.49765 96.2198 9.95668H96.2419V7.04773H97.3997V13.0753C97.3997 13.5687 97.4129 14.0234 97.4405 14.4405ZM96.2419 12.3034V11.4585C96.2419 11.3123 96.2308 11.194 96.2099 11.1037C96.1448 10.8328 96.0046 10.6049 95.7916 10.4211C95.5763 10.2373 95.317 10.1448 95.0179 10.1448C94.5863 10.1448 94.2486 10.3114 94.0003 10.6458C93.7541 10.9801 93.6294 11.4069 93.6294 11.9282C93.6294 12.4292 93.7475 12.8355 93.9848 13.1484C94.2354 13.4816 94.5731 13.6482 94.9958 13.6482C95.3755 13.6482 95.679 13.5096 95.9097 13.2311C96.1326 12.9742 96.2419 12.6646 96.2419 12.3034Z" fill="white"/>
<path d="M107.333 11.8648C107.333 12.6442 107.105 13.2827 106.648 13.7837C106.169 14.2986 105.535 14.5555 104.742 14.5555C103.979 14.5555 103.371 14.3094 102.916 13.8149C102.463 13.3214 102.237 12.699 102.237 11.9487C102.237 11.1639 102.47 10.52 102.938 10.0201C103.406 9.52025 104.035 9.26978 104.829 9.26978C105.591 9.26978 106.206 9.51595 106.67 10.0094C107.111 10.4888 107.333 11.108 107.333 11.8648ZM106.134 11.9014C106.134 11.4337 106.031 11.0328 105.824 10.6984C105.58 10.2942 105.236 10.0921 104.786 10.0921C104.322 10.0921 103.969 10.2942 103.725 10.6984C103.518 11.0328 103.415 11.4402 103.415 11.9218C103.415 12.3894 103.519 12.7904 103.725 13.1247C103.976 13.5289 104.324 13.731 104.775 13.731C105.216 13.731 105.564 13.5257 105.813 13.114C106.026 12.7732 106.134 12.369 106.134 11.9014Z" fill="white"/>
<path d="M113.552 14.4405H112.397V11.538C112.397 10.6436 112.048 10.1964 111.347 10.1964C111.004 10.1964 110.727 10.3189 110.513 10.5651C110.299 10.8113 110.192 11.1015 110.192 11.4337V14.4394H109.034V10.8209C109.034 10.3759 109.021 9.8932 108.993 9.37075H110.008L110.062 10.163H110.094C110.23 9.91686 110.431 9.71368 110.694 9.55135C111.008 9.36215 111.358 9.26648 111.743 9.26648C112.228 9.26648 112.632 9.41913 112.953 9.7255C113.354 10.1007 113.552 10.6608 113.552 11.4047V14.4405Z" fill="white"/>
<path d="M121.337 10.2169H120.063V12.6786C120.063 13.3043 120.289 13.6171 120.738 13.6171C120.945 13.6171 121.117 13.5999 121.253 13.5644L121.283 14.4191C121.054 14.5029 120.754 14.5448 120.384 14.5448C119.927 14.5448 119.572 14.4094 119.315 14.1385C119.057 13.8676 118.929 13.4118 118.929 12.7722V10.2169H118.168V9.37301H118.929V8.44421L120.062 8.11096V9.37194H121.336V10.2169H121.337Z" fill="white"/>
<path d="M127.46 14.4405H126.302V11.5595C126.302 10.6511 125.954 10.1964 125.255 10.1964C124.719 10.1964 124.352 10.4598 124.151 10.9865C124.117 11.0973 124.097 11.2327 124.097 11.3918V14.4394H122.942V7.04773H124.097V10.1018H124.119C124.483 9.54603 125.006 9.26868 125.682 9.26868C126.161 9.26868 126.557 9.42133 126.872 9.7277C127.264 10.1093 127.46 10.6769 127.46 11.4273V14.4405Z" fill="white"/>
<path d="M133.777 11.6671C133.777 11.8692 133.761 12.039 133.734 12.1777H130.265C130.28 12.6786 130.446 13.0603 130.767 13.3247C131.06 13.5612 131.439 13.6795 131.903 13.6795C132.416 13.6795 132.884 13.5999 133.305 13.4397L133.486 14.2223C132.993 14.4309 132.412 14.5352 131.74 14.5352C130.935 14.5352 130.3 14.304 129.841 13.8418C129.379 13.3795 129.151 12.7593 129.151 11.981C129.151 11.2166 129.364 10.5802 129.793 10.0728C130.241 9.53103 130.847 9.26013 131.612 9.26013C132.361 9.26013 132.929 9.53103 133.313 10.0728C133.623 10.5028 133.777 11.035 133.777 11.6671ZM132.673 11.3757C132.682 11.0414 132.606 10.7533 132.449 10.5104C132.248 10.1975 131.942 10.0406 131.528 10.0406C131.151 10.0406 130.843 10.1932 130.608 10.4996C130.416 10.7436 130.302 11.035 130.265 11.3757H132.673Z" fill="white"/>
<path d="M59.2082 33.8668H56.7017L55.3287 29.6646H50.5563L49.2484 33.8668H46.8081L51.5363 19.5607H54.4567L59.2082 33.8668ZM54.9148 27.9016L53.6731 24.166C53.5418 23.7843 53.2956 22.8856 52.9325 21.4709H52.8884C52.7438 22.0794 52.5109 22.9781 52.1908 24.166L50.9712 27.9016H54.9148Z" fill="white"/>
<path d="M71.3677 28.5821C71.3677 30.3365 70.881 31.7233 69.9075 32.7413C69.0356 33.6475 67.9528 34.1001 66.6604 34.1001C65.2653 34.1001 64.2632 33.6121 63.6528 32.636H63.6087V38.0701H61.2556V26.9471C61.2556 25.8441 61.2258 24.7121 61.1684 23.5511H63.2378L63.3692 25.1862H63.4133C64.198 23.9543 65.3889 23.3394 66.9871 23.3394C68.2365 23.3394 69.2795 23.8199 70.1139 24.782C70.9505 25.7452 71.3677 27.0116 71.3677 28.5821ZM68.9704 28.666C68.9704 27.6619 68.7387 26.8342 68.2729 26.1827C67.7641 25.5033 67.0809 25.1636 66.2244 25.1636C65.6439 25.1636 65.1163 25.3528 64.645 25.7259C64.1726 26.1021 63.8636 26.5934 63.719 27.2018C63.6462 27.4856 63.6098 27.7178 63.6098 27.9006V29.6206C63.6098 30.3709 63.846 31.0041 64.3183 31.5212C64.7907 32.0383 65.4044 32.2963 66.1593 32.2963C67.0456 32.2963 67.7354 31.963 68.2288 31.2987C68.7232 30.6332 68.9704 29.756 68.9704 28.666Z" fill="white"/>
<path d="M83.5493 28.5821C83.5493 30.3365 83.0625 31.7233 82.088 32.7413C81.2171 33.6475 80.1344 34.1001 78.842 34.1001C77.4469 34.1001 76.4447 33.6121 75.8355 32.636H75.7913V38.0701H73.4382V26.9471C73.4382 25.8441 73.4084 24.7121 73.351 23.5511H75.4205L75.5518 25.1862H75.596C76.3796 23.9543 77.5705 23.3394 79.1698 23.3394C80.4181 23.3394 81.4611 23.8199 82.2977 24.782C83.131 25.7452 83.5493 27.0116 83.5493 28.5821ZM81.152 28.666C81.152 27.6619 80.9191 26.8342 80.4534 26.1827C79.9446 25.5033 79.2636 25.1636 78.406 25.1636C77.8244 25.1636 77.2979 25.3528 76.8255 25.7259C76.3531 26.1021 76.0452 26.5934 75.9006 27.2018C75.8289 27.4856 75.7913 27.7178 75.7913 27.9006V29.6206C75.7913 30.3709 76.0275 31.0041 76.4977 31.5212C76.9701 32.0372 77.5838 32.2963 78.3409 32.2963C79.2272 32.2963 79.917 31.963 80.4103 31.2987C80.9048 30.6332 81.152 29.756 81.152 28.666Z" fill="white"/>
<path d="M97.169 29.8549C97.169 31.0718 96.7352 32.0619 95.8644 32.8262C94.9075 33.6615 93.5753 34.0786 91.8635 34.0786C90.283 34.0786 89.0159 33.7819 88.0568 33.1874L88.602 31.2771C89.6351 31.8856 90.7686 32.1909 92.0036 32.1909C92.8899 32.1909 93.5797 31.9952 94.0753 31.6061C94.5686 31.2169 94.8148 30.6945 94.8148 30.043C94.8148 29.4625 94.6117 28.9734 94.2044 28.5767C93.7994 28.1801 93.1228 27.8113 92.178 27.4706C89.6064 26.5364 88.3217 25.1679 88.3217 23.3684C88.3217 22.1923 88.772 21.228 89.6737 20.4777C90.5721 19.7262 91.7708 19.3511 93.2696 19.3511C94.6062 19.3511 95.7165 19.5779 96.6028 20.0305L96.0145 21.8988C95.1867 21.4602 94.2508 21.2409 93.2034 21.2409C92.3756 21.2409 91.7288 21.4398 91.2653 21.8354C90.8735 22.1891 90.677 22.6202 90.677 23.1308C90.677 23.6962 90.901 24.1639 91.3513 24.5315C91.7432 24.8712 92.4551 25.2389 93.4881 25.6355C94.7519 26.1311 95.6801 26.7105 96.2772 27.3749C96.8721 28.0371 97.169 28.8659 97.169 29.8549Z" fill="white"/>
<path d="M104.949 25.271H102.355V30.2795C102.355 31.5533 102.812 32.1897 103.728 32.1897C104.149 32.1897 104.498 32.1543 104.773 32.0833L104.839 33.8237C104.375 33.9925 103.765 34.0774 103.009 34.0774C102.079 34.0774 101.353 33.8012 100.829 33.2497C100.307 32.6971 100.044 31.7705 100.044 30.4687V25.2689H98.4989V23.5489H100.044V21.6601L102.355 20.9807V23.5489H104.949V25.271Z" fill="white"/>
<path d="M116.652 28.6241C116.652 30.2097 116.186 31.5115 115.256 32.5296C114.282 33.5777 112.988 34.1001 111.376 34.1001C109.822 34.1001 108.585 33.5981 107.662 32.5941C106.739 31.59 106.278 30.3226 106.278 28.795C106.278 27.1965 106.752 25.8871 107.705 24.8691C108.655 23.85 109.938 23.3405 111.55 23.3405C113.104 23.3405 114.355 23.8425 115.298 24.8476C116.201 25.8226 116.652 27.0815 116.652 28.6241ZM114.21 28.6983C114.21 27.7469 114.002 26.931 113.579 26.2505C113.085 25.427 112.38 25.0164 111.466 25.0164C110.52 25.0164 109.802 25.4281 109.309 26.2505C108.886 26.932 108.677 27.7609 108.677 28.7413C108.677 29.6926 108.886 30.5086 109.309 31.188C109.817 32.0114 110.528 32.4221 111.445 32.4221C112.344 32.4221 113.049 32.0028 113.558 31.1665C113.992 30.4731 114.21 29.6486 114.21 28.6983Z" fill="white"/>
<path d="M124.3 25.5668C124.067 25.5248 123.819 25.5033 123.559 25.5033C122.731 25.5033 122.091 25.8076 121.64 26.4171C121.248 26.9546 121.052 27.634 121.052 28.4542V33.8668H118.7L118.722 26.7998C118.722 25.6108 118.692 24.5283 118.634 23.5522H120.683L120.769 25.5259H120.835C121.083 24.8476 121.475 24.3015 122.011 23.8919C122.535 23.5232 123.102 23.3394 123.712 23.3394C123.929 23.3394 124.126 23.3544 124.3 23.3813V25.5668Z" fill="white"/>
<path d="M134.824 28.2209C134.824 28.6315 134.796 28.9777 134.738 29.2604H127.679C127.706 30.2795 128.047 31.0589 128.703 31.5964C129.298 32.0769 130.067 32.3177 131.012 32.3177C132.057 32.3177 133.011 32.1554 133.868 31.8296L134.237 33.4206C133.235 33.8463 132.052 34.0581 130.686 34.0581C129.044 34.0581 127.755 33.5873 126.817 32.6466C125.881 31.706 125.412 30.4429 125.412 28.8583C125.412 27.3028 125.848 26.0074 126.721 24.9744C127.635 23.8714 128.87 23.3199 130.424 23.3199C131.95 23.3199 133.106 23.8714 133.89 24.9744C134.512 25.8505 134.824 26.9341 134.824 28.2209ZM132.58 27.6264C132.596 26.947 132.442 26.36 132.123 25.8645C131.716 25.227 131.09 24.9088 130.248 24.9088C129.479 24.9088 128.853 25.2195 128.375 25.843C127.983 26.3385 127.75 26.933 127.679 27.6253H132.58V27.6264Z" fill="white"/>
</svg>
