<svg width="149" height="43" viewBox="0 0 149 43" fill="none" xmlns="http://www.w3.org/2000/svg">
<path d="M143.481 43H5.51852C2.48471 43 0 40.5799 0 37.625V5.375C0 2.42009 2.48471 0 5.51852 0H143.481C146.515 0 149 2.42009 149 5.375V37.625C149 40.5799 146.515 43 143.481 43Z" fill="black"/>
<path d="M143.481 0.861342C146.037 0.861342 148.116 2.88638 148.116 5.375V37.625C148.116 40.1136 146.037 42.1387 143.481 42.1387H5.51852C2.96344 42.1387 0.884342 40.1136 0.884342 37.625V5.375C0.884342 2.88638 2.96344 0.861342 5.51852 0.861342H143.481ZM143.481 0H5.51852C2.48471 0 0 2.42009 0 5.375V37.625C0 40.5799 2.48471 43 5.51852 43H143.481C146.515 43 149 40.5799 149 37.625V5.375C149 2.42009 146.515 0 143.481 0Z" fill="#A6A6A6"/>
<path d="M11.5172 8.10413C11.1929 8.43469 11.0053 8.94935 11.0053 9.61585V33.3895C11.0053 34.056 11.1929 34.5706 11.5172 34.9012L11.5972 34.9738L25.2748 21.6572V21.3428L11.5972 8.02619L11.5172 8.10413Z" fill="url(#paint0_linear_10682_486)"/>
<path d="M29.8289 26.0983L25.2748 21.6572V21.3427L29.8345 16.9016L29.9365 16.9594L35.3364 19.952C36.8775 20.8012 36.8775 22.1987 35.3364 23.0533L29.9365 26.0405L29.8289 26.0983V26.0983Z" fill="url(#paint1_linear_10682_486)"/>
<path d="M29.9366 26.0405L25.2748 21.5L11.5172 34.9012C12.029 35.4253 12.8637 35.4884 13.8129 34.9644L29.9366 26.0405" fill="url(#paint2_linear_10682_486)"/>
<path d="M29.9366 16.9595L13.8129 8.03563C12.8637 7.51694 12.029 7.5801 11.5172 8.10416L25.2748 21.5L29.9366 16.9595Z" fill="url(#paint3_linear_10682_486)"/>
<path d="M52.3348 11.012C52.3348 11.9097 52.0589 12.6286 51.5153 13.1647C50.8904 13.8003 50.0764 14.1201 49.0789 14.1201C48.1256 14.1201 47.3116 13.7949 46.6439 13.154C45.9747 12.5036 45.6409 11.7054 45.6409 10.75C45.6409 9.7946 45.9747 8.99641 46.6439 8.35141C47.3116 7.70507 48.1256 7.37988 49.0789 7.37988C49.5535 7.37988 50.006 7.47529 50.4378 7.65266C50.8683 7.83138 51.2187 8.07326 51.4726 8.37157L50.8959 8.93863C50.453 8.42935 49.8501 8.17807 49.0789 8.17807C48.3836 8.17807 47.7807 8.41457 47.2688 8.8916C46.7625 9.36998 46.5087 9.98945 46.5087 10.75C46.5087 11.5106 46.7625 12.1354 47.2688 12.6138C47.7807 13.0854 48.3836 13.3273 49.0789 13.3273C49.817 13.3273 50.4378 13.0854 50.9276 12.6084C51.2504 12.2926 51.4339 11.8573 51.4822 11.3009H49.0789V10.5243H52.2852C52.3238 10.6922 52.3348 10.8548 52.3348 11.012V11.012Z" fill="white" stroke="white" stroke-width="0.16" stroke-miterlimit="10"/>
<path d="M57.4215 8.31918H54.4098V10.3617H57.1249V11.1384H54.4098V13.1809H57.4215V13.9723H53.5572V7.52771H57.4215V8.31918Z" fill="white" stroke="white" stroke-width="0.16" stroke-miterlimit="10"/>
<path d="M61.0113 13.9723H60.1587V8.31918H58.3114V7.52771H62.86V8.31918H61.0113V13.9723V13.9723Z" fill="white" stroke="white" stroke-width="0.16" stroke-miterlimit="10"/>
<path d="M66.1519 13.9723V7.52771H67.0031V13.9723H66.1519Z" fill="white" stroke="white" stroke-width="0.16" stroke-miterlimit="10"/>
<path d="M70.7763 13.9723H69.9306V8.31918H68.0764V7.52771H72.6306V8.31918H70.7763V13.9723Z" fill="white" stroke="white" stroke-width="0.16" stroke-miterlimit="10"/>
<path d="M81.2422 13.1432C80.5897 13.7949 79.7812 14.1201 78.8168 14.1201C77.8469 14.1201 77.0385 13.7949 76.3859 13.1432C75.7347 12.4929 75.4105 11.6947 75.4105 10.75C75.4105 9.80535 75.7347 9.00716 76.3859 8.35679C77.0385 7.70507 77.8469 7.37988 78.8168 7.37988C79.7757 7.37988 80.5841 7.70507 81.2367 8.36216C81.8934 9.01791 82.2176 9.81073 82.2176 10.75C82.2176 11.6947 81.8934 12.4929 81.2422 13.1432ZM77.0164 12.603C77.5076 13.0854 78.1049 13.3273 78.8168 13.3273C79.5232 13.3273 80.1261 13.0854 80.6117 12.603C81.1015 12.1206 81.3498 11.5012 81.3498 10.75C81.3498 9.99885 81.1015 9.37938 80.6117 8.89698C80.1261 8.41457 79.5232 8.1727 78.8168 8.1727C78.1049 8.1727 77.5076 8.41457 77.0164 8.89698C76.5266 9.37938 76.2783 9.99885 76.2783 10.75C76.2783 11.5012 76.5266 12.1206 77.0164 12.603V12.603Z" fill="white" stroke="white" stroke-width="0.16" stroke-miterlimit="10"/>
<path d="M83.4138 13.9723V7.52771H84.4485L87.6658 12.5399H87.703L87.6658 11.301V7.52771H88.517V13.9723H87.6285L84.2595 8.7129H84.2222L84.2595 9.95721V13.9723H83.4138V13.9723Z" fill="white" stroke="white" stroke-width="0.16" stroke-miterlimit="10"/>
<path d="M75.2009 23.3839C72.6085 23.3839 70.4908 25.3055 70.4908 27.9567C70.4908 30.5864 72.6085 32.5281 75.2009 32.5281C77.7987 32.5281 79.9164 30.5864 79.9164 27.9567C79.9164 25.3055 77.7987 23.3839 75.2009 23.3839ZM75.2009 30.7275C73.7785 30.7275 72.5547 29.584 72.5547 27.9567C72.5547 26.3079 73.7785 25.1846 75.2009 25.1846C76.6233 25.1846 77.8525 26.3079 77.8525 27.9567C77.8525 29.584 76.6233 30.7275 75.2009 30.7275V30.7275ZM64.924 23.3839C62.3262 23.3839 60.2139 25.3055 60.2139 27.9567C60.2139 30.5864 62.3262 32.5281 64.924 32.5281C67.5205 32.5281 69.6341 30.5864 69.6341 27.9567C69.6341 25.3055 67.5205 23.3839 64.924 23.3839ZM64.924 30.7275C63.5002 30.7275 62.2724 29.584 62.2724 27.9567C62.2724 26.3079 63.5002 25.1846 64.924 25.1846C66.3464 25.1846 67.5701 26.3079 67.5701 27.9567C67.5701 29.584 66.3464 30.7275 64.924 30.7275ZM52.695 24.7855V26.7285H57.4588C57.3195 27.8143 56.947 28.6125 56.3758 29.1688C55.6805 29.8406 54.5975 30.5864 52.695 30.5864C49.7633 30.5864 47.4676 28.2819 47.4676 25.4264C47.4676 22.571 49.7633 20.2664 52.695 20.2664C54.2802 20.2664 55.4335 20.8698 56.2848 21.6518L57.6906 20.2826C56.5 19.1753 54.9162 18.3247 52.695 18.3247C48.6747 18.3247 45.296 21.5107 45.296 25.4264C45.296 29.3421 48.6747 32.5281 52.695 32.5281C54.8679 32.5281 56.5 31.8348 57.783 30.534C59.0978 29.2534 59.5076 27.4528 59.5076 25.9989C59.5076 25.5474 59.469 25.1321 59.4 24.7855H52.695ZM102.701 26.2918C102.313 25.2692 101.117 23.3839 98.6808 23.3839C96.2664 23.3839 94.2563 25.237 94.2563 27.9567C94.2563 30.5179 96.2457 32.5281 98.9125 32.5281C101.069 32.5281 102.313 31.2476 102.825 30.5018L101.225 29.4631C100.691 30.2236 99.9638 30.7275 98.9125 30.7275C97.8682 30.7275 97.119 30.2612 96.6389 29.3421L102.918 26.8118L102.701 26.2918V26.2918ZM96.2995 27.8143C96.2457 26.0513 97.7054 25.1483 98.7511 25.1483C99.5706 25.1483 100.266 25.5474 100.498 26.1185L96.2995 27.8143V27.8143ZM91.1963 32.25H93.2602V18.8125H91.1963V32.25ZM87.8162 24.4025H87.7472C87.2836 23.8677 86.3993 23.3839 85.2791 23.3839C82.9282 23.3839 80.7787 25.3942 80.7787 27.9715C80.7787 30.534 82.9282 32.5281 85.2791 32.5281C86.3993 32.5281 87.2836 32.0404 87.7472 31.4894H87.8162V32.1452C87.8162 33.8934 86.8573 34.8327 85.3108 34.8327C84.0498 34.8327 83.2676 33.9458 82.9447 33.2L81.1498 33.9297C81.6672 35.1417 83.0372 36.6333 85.3108 36.6333C87.7307 36.6333 89.7725 35.2466 89.7725 31.8724V23.6621H87.8162V24.4025V24.4025ZM85.4556 30.7275C84.0332 30.7275 82.8426 29.5679 82.8426 27.9715C82.8426 26.3603 84.0332 25.1846 85.4556 25.1846C86.8573 25.1846 87.9624 26.3603 87.9624 27.9715C87.9624 29.5679 86.8573 30.7275 85.4556 30.7275V30.7275ZM112.364 18.8125H107.428V32.25H109.486V27.1585H112.364C114.65 27.1585 116.892 25.5474 116.892 22.9848C116.892 20.4236 114.644 18.8125 112.364 18.8125V18.8125ZM112.418 25.2894H109.486V20.6816H112.418C113.955 20.6816 114.832 21.9246 114.832 22.9848C114.832 24.0249 113.955 25.2894 112.418 25.2894ZM125.142 23.3584C123.655 23.3584 122.108 23.998 121.472 25.4157L123.299 26.1615C123.692 25.4157 124.415 25.1738 125.179 25.1738C126.247 25.1738 127.33 25.7986 127.347 26.9019V27.043C126.974 26.8333 126.177 26.5229 125.196 26.5229C123.229 26.5229 121.224 27.5778 121.224 29.5464C121.224 31.347 122.835 32.5066 124.647 32.5066C126.032 32.5066 126.796 31.8979 127.276 31.1898H127.347V32.2285H129.335V27.0739C129.335 24.6914 127.508 23.3584 125.142 23.3584ZM124.894 30.7221C124.22 30.7221 123.282 30.397 123.282 29.584C123.282 28.5439 124.452 28.1448 125.465 28.1448C126.371 28.1448 126.796 28.3397 127.347 28.5963C127.185 29.8406 126.086 30.7221 124.894 30.7221V30.7221ZM136.578 23.6527L134.212 29.4778H134.141L131.695 23.6527H129.475L133.151 31.7931L131.054 36.3229H133.205L138.868 23.6527H136.578V23.6527ZM118.023 32.25H120.087V18.8125H118.023V32.25Z" fill="white"/>
<defs>
<linearGradient id="paint0_linear_10682_486" x1="24.0604" y1="33.637" x2="6.02559" y2="15.1207" gradientUnits="userSpaceOnUse">
<stop stop-color="#00A0FF"/>
<stop offset="0.0066" stop-color="#00A1FF"/>
<stop offset="0.2601" stop-color="#00BEFF"/>
<stop offset="0.5122" stop-color="#00D2FF"/>
<stop offset="0.7604" stop-color="#00DFFF"/>
<stop offset="1" stop-color="#00E3FF"/>
</linearGradient>
<linearGradient id="paint1_linear_10682_486" x1="37.3431" y1="21.4984" x2="10.6369" y2="21.4984" gradientUnits="userSpaceOnUse">
<stop stop-color="#FFE000"/>
<stop offset="0.4087" stop-color="#FFBD00"/>
<stop offset="0.7754" stop-color="#FFA500"/>
<stop offset="1" stop-color="#FF9C00"/>
</linearGradient>
<linearGradient id="paint2_linear_10682_486" x1="27.4017" y1="19.0317" x2="2.94497" y2="-6.078" gradientUnits="userSpaceOnUse">
<stop stop-color="#FF3A44"/>
<stop offset="1" stop-color="#C31162"/>
</linearGradient>
<linearGradient id="paint3_linear_10682_486" x1="8.05406" y1="42.8106" x2="18.9751" y2="31.5981" gradientUnits="userSpaceOnUse">
<stop stop-color="#32A071"/>
<stop offset="0.0685" stop-color="#2DA771"/>
<stop offset="0.4762" stop-color="#15CF74"/>
<stop offset="0.8009" stop-color="#06E775"/>
<stop offset="1" stop-color="#00F076"/>
</linearGradient>
</defs>
</svg>
